<?xml version="1.0" standalone="no"?>
<!DOCTYPE svg PUBLIC "-//W3C//DTD SVG 20010904//EN"
 "http://www.w3.org/TR/2001/REC-SVG-20010904/DTD/svg10.dtd">
<svg version="1.0" xmlns="http://www.w3.org/2000/svg"
 width="501.000000pt" height="501.000000pt" viewBox="0 0 501.000000 501.000000"
 preserveAspectRatio="xMidYMid meet">
<metadata>
Created by potrace 1.11, written by Peter Selinger 2001-2013
</metadata>
<g transform="translate(0.000000,501.000000) scale(0.100000,-0.100000)"
fill="#000000" stroke="none">
<path d="M3082 4850 c-40 -24 -57 -63 -67 -149 l-7 -64 -98 -103 c-151 -159
-252 -324 -290 -475 l-12 -46 -72 -6 c-170 -15 -333 -92 -477 -224 -174 -162
-278 -437 -279 -741 l-1 -87 -48 -22 c-62 -29 -99 -92 -103 -176 -2 -38 -7
-57 -16 -57 -7 0 -66 46 -130 103 -525 461 -1007 727 -1318 727 -128 0 -172
-47 -160 -171 14 -153 116 -403 244 -599 75 -114 219 -257 297 -296 64 -31 79
-32 250 -19 167 13 392 -46 933 -247 166 -62 192 -75 192 -93 0 -12 -12 -30
-28 -42 -56 -41 -195 -178 -270 -267 -240 -280 -354 -536 -355 -796 0 -162 45
-301 150 -461 l50 -77 6 -116 c7 -123 20 -164 61 -191 35 -23 64 -7 171 95
l95 90 56 0 c174 0 348 103 462 275 82 121 133 266 168 472 31 177 18 592 -22
731 -6 22 -6 22 118 22 122 0 128 -1 249 -44 631 -224 865 -337 964 -466 62
-81 125 -111 244 -118 48 -2 119 1 157 7 321 56 713 260 795 415 l24 46 -20
37 c-44 81 -228 192 -417 252 -249 79 -498 111 -920 118 -248 5 -318 9 -318
19 0 7 4 14 8 16 5 2 27 30 50 63 72 107 79 196 22 288 -26 42 -30 54 -21 71
6 12 27 50 46 86 46 83 109 273 125 373 18 108 8 282 -20 372 -32 101 -85 201
-146 276 -30 36 -54 73 -54 81 0 18 118 133 180 175 206 139 516 215 751 183
152 -20 224 5 224 79 0 62 -51 111 -116 111 -37 0 -78 -21 -151 -77 -70 -54
-105 -69 -183 -78 -252 -29 -551 -138 -736 -268 -37 -26 -70 -47 -73 -47 -3 0
-33 18 -65 40 -107 73 -247 127 -395 150 l-79 13 6 72 c21 249 186 472 415
560 78 30 112 58 132 105 10 25 10 34 -4 55 -23 35 -74 65 -111 65 -16 0 -45
-9 -63 -20z"/>
<path d="M1263 2263 c-30 -6 -73 -51 -73 -78 0 -49 28 -65 135 -75 119 -12
185 -27 325 -74 57 -20 108 -36 112 -36 11 0 -74 76 -137 121 -126 92 -289
156 -362 142z"/>
<path d="M1520 1870 c-126 -43 -306 -127 -358 -166 -58 -45 -77 -108 -46 -152
29 -42 66 -30 154 52 92 87 182 159 298 240 115 81 114 81 -48 26z"/>
<path d="M2546 1711 c5 -5 38 -21 74 -36 113 -47 253 -123 329 -180 41 -30 82
-55 92 -55 51 0 77 85 40 132 -41 52 -201 117 -338 137 -89 14 -211 14 -197 2z"/>
<path d="M2553 1535 c3 -16 17 -82 31 -145 14 -63 30 -167 36 -230 6 -63 13
-130 16 -148 6 -38 35 -72 63 -72 26 0 69 46 80 87 14 49 -19 144 -120 350
-80 162 -119 220 -106 158z"/>
</g>
</svg>
